<svg xmlns:xlink="http://www.w3.org/1999/xlink" preserveAspectRatio="xMidYMid meet" data-bbox="-0.022 -0.038 118.967 121.76" viewBox="-0.022 -0.038 118.967 121.76" xmlns="http://www.w3.org/2000/svg" data-type="color" role="presentation" aria-hidden="true" aria-labelledby="svgcid--n7lijyrmswhe" width="83"  height="85" ><title id="svgcid--n7lijyrmswhe"></title>
    <g>
        <path d="M90.72 88.91c-6.37 13.3-15.13 20.27-30.35 21.77a31.68 31.68 0 0 1-30.53-41.74 23.63 23.63 0 0 1-14.23-27 23.19 23.19 0 0 1 17.32-17.81 23.64 23.64 0 0 1 25.86 10.62 23.58 23.58 0 0 1 20.14-11.3c10.46 0 18.9 5.81 22.72 16.14a26.47 26.47 0 0 1 1 4.54c.69 4.47 2.23 8.21 7.86 8.22a8.4 8.4 0 0 0 8-11.07 60.88 60.88 0 1 0-9.8 57.2c4.89-7.48.54-16.72-8.08-16.72-4.51 0-7.72 2.05-9.91 7.15z" fill="#F48F8B" data-color="1"></path>
        <path d="M78 90.55a26.26 26.26 0 0 1-36.8 0c-2-2-2.15-4.8-.68-5.72 1.47-.92 3.61-.18 5.08 1.25a20 20 0 0 0 28 0c1.47-1.43 3.62-2.17 5.09-1.25 1.45.92 1.31 3.72-.69 5.72z" fill="#5C98CB" data-color="2"></path>
        <path fill="#5C98CB" d="M46.31 46.04a7.93 7.93 0 1 1-15.86 0 7.93 7.93 0 0 1 15.86 0z" data-color="2"></path>
        <path fill="#5C98CB" d="M90.68 46.04a7.93 7.93 0 1 1-15.86 0 7.93 7.93 0 0 1 15.86 0z" data-color="2"></path>
    </g>
</svg>